<?xml version="1.0" encoding="UTF-8" standalone="no"?><!DOCTYPE svg PUBLIC "-//W3C//DTD SVG 1.1//EN" "http://www.w3.org/Graphics/SVG/1.1/DTD/svg11.dtd"><svg width="100%" height="100%" viewBox="0 0 750 1050" version="1.1" xmlns="http://www.w3.org/2000/svg" xmlns:xlink="http://www.w3.org/1999/xlink" xml:space="preserve" xmlns:serif="http://www.serif.com/" style="fill-rule:evenodd;clip-rule:evenodd;stroke-linejoin:round;stroke-miterlimit:2;"><path d="M750,37.5c0,-20.697 -16.803,-37.5 -37.5,-37.5l-675,0c-20.697,0 -37.5,16.803 -37.5,37.5l0,975c0,20.697 16.803,37.5 37.5,37.5l675,0c20.697,0 37.5,-16.803 37.5,-37.5l0,-975Z" style="fill:#fff;"/><g id="spades"><g><g><path d="M37.544,123.987l21.28,-93.987l10.856,-0l21.28,93.987l6.685,0l0,11.131l-25.972,0l0,-11.131l7.875,0l-2.94,-12.986l-24.71,0l-2.94,12.986l7.875,0l0,11.131l-25.972,0l0,-11.131l6.685,0Zm16.873,-24.117l19.67,0l-9.835,-43.438l-9.835,43.438Z"/><path d="M712.456,926.013l-21.28,93.987l-10.856,0l-21.28,-93.987l-6.685,0l-0,-11.131l25.972,0l-0,11.131l-7.875,0l2.94,12.986l24.71,0l2.94,-12.986l-7.875,0l-0,-11.131l25.972,0l-0,11.131l-6.685,0Zm-16.873,24.117l-19.67,0l9.835,43.438l9.835,-43.438Z"/><path id="b" d="M46.071,216.61c-8.583,-1.674 -11.326,-10.293 -11.254,-15.386c0.249,-15.735 15.195,-27.307 29.435,-47.448c14.24,20.141 29.186,31.713 29.435,47.448c0.071,5.093 -2.671,13.712 -11.254,15.386c-0.442,0.049 -0.886,0.073 -1.331,0.073c-6.662,0 -12.145,-5.482 -12.145,-12.145l0.013,-0.572c0.008,-0.848 -0.394,-1.293 -0.833,-1.287c-0.52,0.007 -1.09,0.647 -1.09,1.999c0.421,7.916 2.625,15.635 6.447,22.58l-18.485,0c3.821,-6.945 6.026,-14.664 6.447,-22.58c-0,-1.352 -0.571,-1.991 -1.09,-1.999c-0.439,-0.006 -0.841,0.439 -0.833,1.287l0.013,0.572c0,6.662 -5.482,12.145 -12.145,12.145c-0.445,0 -0.889,-0.024 -1.331,-0.073Zm18.181,-62.834l-0.018,-0.026l0.037,0l-0.018,0.026Z"/><path id="b1" serif:id="b" d="M703.929,833.39c8.583,1.674 11.326,10.293 11.254,15.386c-0.249,15.735 -15.195,27.307 -29.435,47.448c-14.24,-20.141 -29.186,-31.713 -29.435,-47.448c-0.071,-5.093 2.671,-13.712 11.254,-15.386c0.442,-0.049 0.886,-0.073 1.331,-0.073c6.662,0 12.145,5.482 12.145,12.145l-0.013,0.572c-0.008,0.848 0.394,1.293 0.833,1.287c0.52,-0.007 1.09,-0.647 1.09,-1.999c-0.421,-7.916 -2.625,-15.635 -6.447,-22.58l18.485,0c-3.821,6.945 -6.026,14.664 -6.447,22.58c0,1.352 0.571,1.991 1.09,1.999c0.439,0.006 0.841,-0.439 0.833,-1.287l-0.013,-0.572c0,-6.662 5.482,-12.145 12.145,-12.145c0.445,0 0.889,0.024 1.331,0.073Zm-18.181,62.834l0.018,0.026l-0.037,0l0.018,-0.026Z"/></g><path id="path2987" d="M358.002,805.608c-32.607,-0.017 -59.561,-0.3 -59.898,-0.627c-0.337,-0.327 2.318,-2.851 5.901,-5.61c13.041,-10.042 24.279,-26.778 37.247,-55.467c8.912,-19.716 11.779,-27.628 14.74,-40.671c4.737,-20.872 4.584,-35.155 -0.443,-41.177l-2.41,-2.887l-9.708,10.199c-10.793,11.339 -24.837,20.994 -40.507,27.847c-17.165,7.507 -28.271,9.909 -47.123,10.19c-14.868,0.222 -18.069,-0.165 -28.694,-3.473c-26.824,-8.351 -48.564,-27.479 -61.225,-53.871c-7.627,-15.899 -9.577,-24.708 -9.945,-44.945c-0.298,-16.373 0.058,-19.554 3.78,-33.819c5.814,-22.278 17.725,-49.841 29.852,-69.08c14.739,-23.382 48.722,-66.781 84.638,-108.088c29.551,-33.986 41.458,-49.128 62.075,-78.938c21.935,-31.716 30.643,-46.921 34.797,-60.76c1.661,-5.532 3.321,-10.059 3.689,-10.061c0.368,-0 2.517,5.496 4.775,12.215c8.981,26.726 32.222,63.313 65.918,103.771c5.999,7.203 23.468,27.719 38.818,45.591c50.275,58.53 71.499,87.998 90.249,125.3c14.519,28.885 20.247,51.149 19.562,76.038c-0.875,31.807 -11.062,54.277 -34.674,76.481c-9.727,9.147 -24.645,17.809 -36.504,21.195c-3.667,1.047 -13.592,2.393 -22.056,2.992c-25.342,1.792 -44.235,-3.173 -70.561,-18.544c-12.346,-7.208 -26.301,-18.852 -30.157,-25.164c-3.116,-5.1 -5.505,-4.775 -7.845,1.068c-3.934,9.825 -4.564,18.676 -2.17,30.479c7.467,36.808 31.34,83.951 51.84,102.37l8.283,7.442l-16.48,0.017c-9.064,0.012 -43.158,0.002 -75.765,-0.017l0,0.001Zm54.126,-19.466c-6.425,-5.137 -20.346,-24.965 -27.24,-38.801c-7.17,-14.388 -9.361,-24.954 -7.334,-35.357c0.831,-4.266 1.819,-9.331 2.194,-11.256c0.438,-2.245 -0.501,-5.746 -2.618,-9.763l-3.301,-6.263l-3.699,7.044l-3.699,7.044l2.443,6.488c3.604,9.571 2.741,23.477 -2.106,33.949c-6.125,13.234 -26.651,43.708 -31.938,47.417c-6.19,4.343 -3.44,4.201 8.355,-0.431c8.499,-3.337 11.213,-3.739 26.216,-3.881c17.238,-0.163 32.966,2.073 39.829,5.662c6.381,3.337 8.051,2.268 2.896,-1.854l-0,-0Zm-24.72,-8.609c-7.964,-1.739 -28.036,-1.237 -35.473,0.888c-3.297,0.942 -3.289,0.902 0.73,-3.646c5.53,-6.258 9.025,-12.888 15.574,-29.543c5.036,-12.808 5.685,-13.829 6.87,-10.815c0.72,1.831 3.581,9.517 6.359,17.08c4.863,13.243 7.889,18.777 13.744,25.136c3.07,3.334 3.247,3.314 -7.804,0.9Zm132.526,-90.578c18.652,-7.114 35.95,-23.742 45.042,-43.3c5.722,-12.309 7.755,-19.736 9.487,-34.667c2.429,-20.934 -1.105,-39.719 -12.486,-66.371c-15.044,-35.231 -36.188,-64.199 -80.38,-110.125c-67.182,-69.817 -83.828,-91.541 -99.636,-130.033c-2.706,-6.588 -5.367,-14.533 -5.915,-17.655c-0.548,-3.122 -1.394,-5.654 -1.881,-5.627c-0.487,0.028 -2.424,5.096 -4.305,11.265c-11.311,37.107 -36.811,72.868 -96.136,134.818c-41.352,43.182 -47.786,50.842 -64.74,77.072c-22.145,34.263 -32.352,61.838 -33.496,90.497c-1.804,45.19 21.877,83.82 57.918,94.479c22.036,6.517 52.293,1.23 76.129,-13.304c19.15,-11.677 28.901,-21.311 36.272,-35.84c2.37,-4.671 4.525,-8.756 4.79,-9.078c0.264,-0.322 2.666,1.45 5.338,3.938c4.677,4.356 12.873,18.272 16.268,27.625l1.634,4.5l4.396,-10.506c2.919,-6.977 6.799,-13.182 11.551,-18.471l7.156,-7.964l4.782,9.521c10.913,21.727 41.369,43.216 72.389,51.074c13.26,3.359 34.407,2.506 45.823,-1.848Zm-35.47,-1.035c-11.29,-1.34 -18.38,-3.505 -30.161,-9.209c-30.973,-14.999 -47.306,-31.67 -50.476,-51.523c-0.557,-3.49 -1.641,-6.336 -2.408,-6.325c-4.545,0.067 -19.139,16.968 -24.168,27.986c-1.14,2.499 -2.595,4.551 -3.233,4.561c-0.637,0.012 -2.493,-2.524 -4.124,-5.63c-4.722,-8.992 -13.523,-20.551 -18.385,-24.146c-4.906,-3.628 -4.887,-3.638 -7.215,4.107c-2.491,8.285 -7.598,18.277 -12.572,24.598c-5.076,6.45 -26.56,21.76 -37.586,26.785c-24.777,11.291 -53.957,11.408 -73.569,0.295c-16.798,-9.519 -29.375,-27.156 -35.633,-49.969c-8.845,-32.246 -3.924,-62.603 16.039,-98.937c18.386,-33.465 29.74,-48.532 63.594,-84.39c56.12,-59.444 84.348,-96.052 100.69,-130.582c6.791,-14.349 8.299,-13.615 4.459,2.171c-6.561,26.97 -50.588,92.292 -117.83,174.822c-18.122,22.242 -37.646,54.944 -43.633,73.085c-8.224,24.917 -9.413,44.985 -3.881,65.503c7.865,29.17 24.116,46.009 47.894,49.623c34.489,5.242 65.337,-19.746 85.761,-69.468l4.931,-12.004l6.763,10.127c7.336,10.986 22.248,26.635 25.336,26.589c2.37,-0.033 19.82,-18.781 25.564,-27.463c2.325,-3.514 4.558,-6.41 4.962,-6.435c0.404,-0.025 1.575,2.202 2.601,4.948c1.027,2.747 4.27,9.706 7.208,15.466c20.811,40.804 48.4,60.815 80.312,58.252c14.19,-1.14 24.451,-7.176 34.367,-20.216c10.744,-14.129 15.826,-27.343 17.555,-45.648c1.92,-20.328 -3.206,-42.747 -15.797,-69.086c-7.057,-14.763 -27.936,-44.853 -44.512,-64.148c-32.405,-37.721 -86.039,-112.821 -100.775,-141.109c-3.82,-7.333 -8.748,-23.417 -9.954,-32.487c-0.974,-7.33 0.518,-5.836 4.443,4.448c6.398,16.761 22.198,41.823 39.688,62.953c10.963,13.244 23.059,26.588 53.421,58.93c19.566,20.842 31.962,35.171 46.001,53.176c24.008,30.789 43.74,71.597 48.484,100.271c4.632,27.993 -6.555,63.019 -26.038,81.522c-7.601,7.219 -22.696,15.065 -33.881,17.611c-9.522,2.167 -12.873,2.298 -24.244,0.949l-0,-0Zm-11.837,-15.014c-11.364,-4.134 -20.839,-10.258 -28.379,-18.343c-13.403,-14.371 -27.352,-38.554 -33.728,-58.474c-3.337,-10.427 -4.509,-11.943 -5.832,-7.548c-2.721,9.038 -26.457,43.387 -30.011,43.428c-2.52,0.033 -13.507,-14.208 -23.972,-31.065c-5.423,-8.734 -10.034,-16.05 -10.247,-16.257c-0.213,-0.207 -1.612,4.49 -3.11,10.437c-6.842,27.182 -27.267,59.815 -45.079,72.024c-25.143,17.235 -62.395,9.641 -73.753,-15.035c-3.025,-6.572 -5.611,-20.365 -3.823,-20.391c0.613,-0.012 1.124,0.599 1.135,1.351c0.044,2.976 7.674,12.326 12.87,15.773c20.391,13.528 40.057,11.325 62.736,-7.028c17.728,-14.347 34.146,-46.715 27.86,-54.926c-1.628,-2.127 -1.771,-1.798 -1.254,2.885c0.769,6.959 -2.262,11.596 -10.358,15.852c-3.499,1.839 -6.941,4.414 -7.649,5.722c-1.181,2.182 -1.608,2.08 -5.189,-1.246c-2.146,-1.993 -5.318,-3.603 -7.048,-3.577c-3.095,0.046 -3.105,0.091 -0.603,2.775c3.037,3.257 3.554,13.896 1.054,21.683c-2.014,6.273 -12.267,17.326 -19.306,20.814c-11.803,5.847 -30.581,1.964 -40.137,-8.301c-13.692,-14.709 -8.32,-39.398 10.821,-49.733c9.191,-4.962 22.24,-3.091 29.149,4.18c3.238,3.408 3.262,3.582 1.129,8.231c-2.983,6.503 -5.09,6.922 -10.142,2.019c-3.961,-3.845 -4.873,-4.131 -11.005,-3.449c-11.603,1.29 -18.783,11.863 -15.555,22.908c1.849,6.328 11.537,14.992 18.009,16.107c16.98,2.924 32.851,-15.819 28.557,-33.724c-1.338,-5.578 -1.115,-7.501 1.923,-16.606c6.666,-19.974 2.937,-50.848 -7.692,-63.695c-2.102,-2.54 -2.134,-2.5 -0.825,1.005c1.417,3.793 0.749,7.7 -1.322,7.731c-0.658,0.012 -1.205,-0.614 -1.216,-1.386c-0.012,-0.772 -2.529,-2.483 -5.595,-3.801c-6.986,-3.003 -12.368,-1.416 -15.326,4.519c-1.937,3.886 -1.915,4.043 0.421,3.044c5.539,-2.369 7.498,-2.404 12.525,-0.227c9.747,4.222 15.622,16.085 15.796,31.9c0.106,9.568 -1.986,20.786 -3.88,20.814c-0.389,0.008 -2.993,-1.745 -5.787,-3.891c-6.731,-5.169 -10.97,-6.578 -19.316,-6.418c-13.931,0.267 -27.483,10.592 -34.868,26.565c-2.39,5.17 -4.342,10.924 -4.337,12.786c0.009,3.225 -0.067,3.26 -1.612,0.731c-2.239,-3.664 -2.089,-24.582 0.26,-36.159c5.904,-29.105 29.137,-71.301 55.694,-101.156l7.148,-8.035l0.965,12.601c0.756,9.879 1.733,14.047 4.52,19.297c4.335,8.164 13.788,16.881 20.637,19.029c7.484,2.347 19.335,0.938 24.362,-2.895c5.235,-3.992 8.946,-12.231 7.667,-17.021c-0.671,-2.515 -0.464,-3.395 0.712,-3.022c2.839,0.9 6.732,6.949 8.08,12.555c1.374,5.715 0.096,18.42 -2.324,23.11c-2.419,4.687 -10.215,9.791 -18.233,11.937c-12.227,3.273 -14.727,4.685 -16.961,9.58c-2.611,5.721 -1.345,13.415 2.536,15.418c2.613,1.349 2.632,1.285 0.489,-1.681c-2.847,-3.938 -2.815,-4.593 0.378,-7.883c2.272,-2.341 4.446,-2.749 15.69,-2.942c16.498,-0.283 22.632,-2.816 27.379,-11.303c5.196,-9.29 6.376,-16.004 4.495,-25.565c-2.968,-15.085 -10.923,-27.551 -20.592,-32.271c-8.054,-3.931 -14.523,-4.016 -19.167,-0.249c-4.207,3.412 -4.637,6.065 -0.624,3.839c4.079,-2.262 8.913,0.263 11.389,5.95c1.745,4.007 1.777,5.277 0.229,9.142c-5.12,12.786 -20.104,14 -33.334,2.7c-8.454,-7.221 -12.203,-15.087 -12.301,-25.813c-0.137,-14.942 7.369,-27.304 20.511,-33.783c5.232,-2.579 16.846,-2.89 23.479,-0.628c18.511,6.31 35.478,29.799 41.699,57.728c2.304,10.346 8.129,55.016 8.245,63.224c0.047,3.339 -1.002,7.542 -2.527,10.13c-3.311,5.618 -3.255,9.252 0.172,11.323c1.486,0.898 2.723,2.993 2.748,4.657c0.027,1.796 0.861,3.013 2.053,2.995c1.193,-0.017 1.99,-1.259 1.963,-3.055c-0.025,-1.664 1.149,-3.795 2.608,-4.737c3.219,-2.078 3.322,-5.776 0.317,-11.381c-1.838,-3.428 -2.131,-6.561 -1.586,-16.983c0.872,-16.683 4.744,-43.77 8.03,-56.177c6.955,-26.258 21.794,-48.537 37.16,-55.793c12.517,-5.91 29.251,-1.971 39.112,9.207c6.272,7.11 7.976,12.561 7.562,24.197c-0.291,8.185 -1.046,10.882 -4.901,17.513c-6.151,10.58 -14.916,16.119 -24.447,15.451c-5.531,-0.388 -7.36,-1.249 -11.126,-5.237c-3.554,-3.764 -4.524,-5.921 -4.588,-10.208c-0.107,-7.166 4.786,-12.638 10.615,-11.872c4.837,0.636 5.047,-0.914 0.512,-3.79c-5.403,-3.426 -15.121,-1.718 -22.903,4.026c-6.916,5.105 -14.086,15.998 -16.334,24.818c-1.982,7.774 -0.411,22.022 3.227,29.259c5.005,9.957 9.162,11.953 26.005,12.487c12.636,0.4 14.739,0.815 17.437,3.437c2.681,2.606 2.852,3.34 1.357,5.817c-1.416,2.345 -1.407,2.728 0.058,2.218c2.569,-0.896 4.213,-6.841 3.073,-11.113c-1.701,-6.374 -7.462,-10.645 -16.584,-12.296c-4.546,-0.823 -9.863,-2.715 -11.817,-4.205c-10.475,-7.99 -13.33,-29.861 -5.277,-40.42c3.671,-4.813 5.166,-4.508 4.373,0.892c-0.846,5.753 2.266,11.629 8.664,16.359c3.838,2.837 6.688,3.706 13.117,3.996c10.35,0.468 16.39,-2.078 24.323,-10.252c8.545,-8.804 11.397,-16.325 11.313,-29.827c-0.038,-6.071 0.364,-11.048 0.893,-11.061c1.655,-0.037 20.082,23.715 31.828,41.028c24.906,36.712 35.534,66.084 33.661,93.022c-0.843,12.125 -2.709,15.129 -4.115,6.623c-1.842,-11.149 -13.793,-27.397 -24.689,-33.566c-4.726,-2.676 -7.826,-3.369 -15.002,-3.353c-9.742,0.021 -15.502,2.22 -21.857,8.341l-3.512,3.383l-1.84,-3.121c-1.175,-1.993 -1.887,-7.476 -1.97,-15.171c-0.151,-14.04 2.688,-22.314 10.487,-30.561c6.184,-6.54 11.348,-7.816 16.549,-4.089l3.907,2.8l-0.058,-3.849c-0.128,-8.594 -11.969,-11.768 -20.273,-5.435l-4.217,3.216l0.534,-4.057c0.692,-5.262 -1.615,-4.416 -6.065,2.224c-5.174,7.72 -7.369,15.972 -7.931,29.813c-0.428,10.528 0.013,14.458 2.534,22.727c1.678,5.499 3.056,11.655 3.062,13.68c0.008,2.025 -0.058,7.148 -0.141,11.384c-0.253,12.77 5.394,22.357 15.921,27.026c15.492,6.872 31.426,-2.838 31.185,-19.002c-0.113,-7.583 -3.144,-12.393 -9.945,-15.782c-5.033,-2.508 -13.466,-1.571 -17.201,1.912c-2.503,2.334 -2.736,2.277 -6.832,-1.7c-4.178,-4.056 -4.207,-4.169 -1.966,-7.704c4.725,-7.451 21.436,-11.498 29.864,-7.233c2.004,1.014 5.904,4.12 8.667,6.901c13.37,13.459 14.402,31.693 2.577,45.538c-9.521,11.147 -19.388,13.676 -34.486,8.839c-10.886,-3.487 -17.646,-8.849 -21.892,-17.365c-5.985,-12.004 -6.014,-16.309 -0.184,-28.062c1.429,-2.881 -5.838,-0.353 -9.332,3.247c-3.094,3.188 -4.32,3.759 -5.197,2.421c-0.631,-0.963 -1.163,-2.179 -1.182,-2.702c-0.017,-0.523 -3.011,-2.837 -6.649,-5.142c-9.305,-5.895 -13.122,-14.313 -9.764,-21.536c1.322,-2.845 1.3,-2.856 -0.674,-0.315c-4.493,5.783 -2.828,15.194 5.432,30.71c14.134,26.547 36.16,42.797 59.359,43.793c9.395,0.403 11.297,0.056 17.82,-3.257c7.505,-3.812 14.951,-11.472 19.239,-19.793l2.434,-4.723l0.116,4.685c0.25,10.073 -10.823,28.494 -21.305,35.443c-6.126,4.062 -7.631,4.446 -19.442,4.971c-10.796,0.48 -14.104,0.095 -21.113,-2.454l-0.001,-0Zm14.2,-35.502c-3.835,-0.688 -9.823,-6.536 -12.185,-11.9c-1.875,-4.259 -2.77,-15.066 -1.249,-15.089c2.893,-0.043 8.587,5.056 10.831,9.698c2.35,4.863 3.184,5.492 7.198,5.433c5.46,-0.081 8.287,-3.501 5.883,-7.118c-0.848,-1.276 -2.818,-2.254 -4.378,-2.172c-3.131,0.164 -3.749,-1.981 -1.298,-4.506c1.699,-1.751 7.486,-2.243 11.04,-0.94c2.939,1.078 6.197,7.428 6.268,12.219c0.069,4.613 -3.917,10.285 -9.229,13.133c-3.711,1.99 -6.965,2.304 -12.883,1.242Zm-242.096,-3.673c-6.276,-5.622 -7.6,-11.9 -3.825,-18.138c3.011,-4.976 8.09,-6.864 12.854,-4.778c3.995,1.749 4.555,5.556 0.677,4.604c-1.92,-0.472 -3.073,0.315 -4.187,2.861c-1.294,2.957 -1.147,3.93 0.931,6.158c1.357,1.456 3.837,2.626 5.51,2.601c3.427,-0.051 8.506,-5.87 8.449,-9.68c-0.02,-1.373 0.793,-2.509 1.807,-2.525c1.014,-0.012 2.581,-0.942 3.481,-2.061c2.722,-3.381 3.982,-2.35 4.067,3.33c0.182,12.212 -6.452,20.26 -17.601,21.353c-6.715,0.658 -7.561,0.399 -12.164,-3.725Zm127.604,-98.471c-0.071,-3.129 -1.016,-7.182 -2.096,-9.008c-2.759,-4.664 -2.572,-6.851 1.015,-11.868l3.135,-4.385l3.122,4.886c2.81,4.399 2.952,5.305 1.42,9.079c-0.936,2.306 -1.928,7.058 -2.204,10.56c-0.666,8.442 -4.2,9.034 -4.393,0.735Zm-7.032,-33.029c-2.894,-13.632 -11.652,-28.582 -23.53,-40.164c-12.538,-12.227 -22.8,-17.531 -31.099,-16.077c-4.425,0.775 -5.223,0.554 -5.212,-1.444c0.019,-3.72 3.009,-8.363 7.24,-11.243c7.675,-5.225 13.34,-3.173 25.577,9.264c17.863,18.155 30.683,42.922 30.934,59.761c0.137,9.199 -1.948,9.147 -3.91,-0.097l-0,-0Zm13.309,0.798c-0.211,-16.239 11.12,-40.559 26.944,-57.843c15.597,-17.035 26.082,-19.705 34.865,-8.875c1.567,1.932 2.868,4.808 2.892,6.391c0.037,2.617 -0.656,2.885 -7.656,2.947c-10.755,0.095 -18.796,4.519 -31.007,17.059c-11.797,12.115 -19.908,26.296 -22.204,38.817c-0.857,4.675 -2.05,8.507 -2.651,8.516c-0.601,0.012 -1.134,-3.147 -1.184,-7.013Zm-5.692,-21.53c-0.175,-11.727 -2.726,-25.179 -11.041,-58.23c-8.021,-31.882 -6.968,-49.145 4.295,-70.38c2.5,-4.714 5.238,-11.184 6.084,-14.378l1.538,-5.808l1.732,5.331c0.953,2.932 3.939,9.892 6.638,15.467c10.508,21.714 11.921,36.649 5.806,61.383c-5.334,21.576 -9.675,43.196 -11.732,58.437c-1.972,14.605 -3.178,17.579 -3.319,8.179Zm-15.782,-26.249c-2.078,-3.04 -7.313,-9.741 -11.634,-14.891c-9.607,-11.452 -13.558,-18.809 -14.703,-27.386c-1.522,-11.391 3.28,-18.516 11.366,-16.866c7.811,1.594 11.469,11.197 15.354,40.309c1.6,11.99 3.275,22.372 3.722,23.072c0.447,0.7 0.556,1.276 0.242,1.281c-0.314,0.004 -2.27,-2.479 -4.348,-5.519l0,0Zm30.798,1.776c0.285,-2.214 1.098,-10.06 1.808,-17.435c2.288,-23.79 6.604,-36.914 13.901,-42.276c4.89,-3.593 7.071,-3.619 10.327,-0.122c2.016,2.165 2.61,4.762 2.673,11.677c0.103,11.305 -1.85,15.46 -14.784,31.458c-5.614,6.944 -11.16,14.447 -12.325,16.674l-2.118,4.049l0.518,-4.025Zm-62.057,-32.007c-3.827,-2.403 -6.431,-2.434 -12.141,-0.145c-2.028,0.813 -1.952,0.246 0.579,-4.355c1.601,-2.909 4.939,-7.68 7.419,-10.601l4.508,-5.312l0.091,6.079c0.05,3.344 1.005,8.552 2.122,11.574c1.117,3.022 1.907,5.452 1.754,5.401c-0.152,-0.052 -2.102,-1.24 -4.332,-2.641l-0,0Zm93.653,-3.408c0.514,-2.884 1.272,-8.219 1.685,-11.857l0.75,-6.614l3.555,5.211c1.955,2.866 4.596,7.154 5.868,9.528l2.313,4.318l-4.422,0.066c-2.432,0.036 -5.831,1.084 -7.553,2.329l-3.13,2.263l0.935,-5.243Zm-71.914,-32.991c-1.76,-1.422 -4.338,-2.569 -5.729,-2.548c-1.391,0.021 -2.533,-0.221 -2.538,-0.537c-0.015,-1.023 10.393,-16.788 11.588,-17.551c0.644,-0.411 0.766,1.6 0.274,4.534c-0.486,2.9 -0.546,8.308 -0.134,12.018c0.412,3.709 0.522,6.728 0.244,6.707c-0.278,-0.02 -1.946,-1.201 -3.706,-2.623l0,0Zm49.684,-8.842c0.03,-5.825 0.183,-10.595 0.34,-10.601c0.537,-0.022 11.332,15.746 11.345,16.569c0.008,0.452 -0.616,0.447 -1.383,-0.011c-0.768,-0.459 -3.412,0.396 -5.876,1.9l-4.48,2.734l0.055,-10.592Z" style="fill-rule:nonzero;"/></g></g></svg>